<svg width="38" height="39" viewBox="0 0 38 39" fill="none" xmlns="http://www.w3.org/2000/svg">
<g id="survey-rating-feedback-svgrepo-com 1">
<path id="Vector" d="M34.58 14.3374C34.58 14.2368 34.5401 14.1403 34.469 14.0691L32.072 11.672C32.0007 11.6008 31.9041 11.5608 31.8033 11.5608C31.7026 11.5608 31.6059 11.6008 31.5347 11.672L25.2472 17.9565V5.82004C25.2472 5.31613 25.047 4.83286 24.6907 4.47654C24.3344 4.12022 23.8511 3.92004 23.3472 3.92004H5.32C4.81609 3.92004 4.33281 4.12022 3.9765 4.47654C3.62018 4.83286 3.42 5.31613 3.42 5.82004V33.18C3.42 33.684 3.62018 34.1672 3.9765 34.5235C4.33281 34.8799 4.81609 35.08 5.32 35.08H23.3472C23.8511 35.08 24.3344 34.8799 24.6907 34.5235C25.047 34.1672 25.2472 33.684 25.2472 33.18V23.8275L34.469 14.6064C34.5043 14.571 34.5323 14.5291 34.5513 14.4829C34.5703 14.4368 34.5801 14.3873 34.58 14.3374Z" fill="#231F20"/>
<path id="Vector_2" d="M20.5261 22.6783C20.4939 22.7119 20.4681 22.751 20.4501 22.7939L18.7781 26.6022C18.7163 26.7099 18.691 26.8347 18.706 26.958C18.7209 27.0812 18.7753 27.1964 18.8609 27.2862C18.912 27.3369 18.9726 27.377 19.0393 27.4041C19.1059 27.4312 19.1773 27.4449 19.2493 27.4443C19.344 27.4443 19.4374 27.4213 19.5214 27.3774L22.3235 26.1462V32.1776H6.13548V6.82397H9.35864C9.57396 7.1752 9.87554 7.46551 10.2347 7.66731C10.5939 7.8691 10.9987 7.97568 11.4106 7.97689H17.252C17.664 7.97568 18.0688 7.8691 18.4279 7.66731C18.7871 7.46551 19.0887 7.1752 19.304 6.82397H22.3136V20.884L20.5261 22.6783Z" fill="white"/>
<path id="Vector_3" d="M24.4872 33.1801C24.4872 33.4824 24.3671 33.7724 24.1533 33.9862C23.9395 34.1999 23.6495 34.3201 23.3472 34.3201H5.32C5.01765 34.3201 4.72769 34.1999 4.5139 33.9862C4.30011 33.7724 4.18 33.4824 4.18 33.1801V5.82005C4.18 5.51771 4.30011 5.22774 4.5139 5.01395C4.72769 4.80016 5.01765 4.68005 5.32 4.68005H8.99004V5.55405C8.99047 5.72556 9.00932 5.89653 9.04628 6.06401H5.75548C5.6547 6.06401 5.55804 6.10405 5.48678 6.17531C5.41552 6.24658 5.37548 6.34323 5.37548 6.44401V32.5561C5.37548 32.6569 5.41552 32.7535 5.48678 32.8248C5.55804 32.8961 5.6547 32.9361 5.75548 32.9361H22.6982C22.7989 32.9361 22.8956 32.8961 22.9669 32.8248C23.0381 32.7535 23.0782 32.6569 23.0782 32.5561V25.8081L23.3457 25.6903C23.3888 25.6723 23.4282 25.6465 23.462 25.6143L24.4872 24.5883V33.1801Z" fill="#D76D3F"/>
<path id="Vector_4" d="M14.079 12.5179H21.052C21.1528 12.5179 21.2494 12.4779 21.3207 12.4066C21.392 12.3354 21.432 12.2387 21.432 12.1379C21.432 12.0372 21.392 11.9405 21.3207 11.8692C21.2494 11.798 21.1528 11.7579 21.052 11.7579H14.079C13.9782 11.7579 13.8816 11.798 13.8103 11.8692C13.739 11.9405 13.699 12.0372 13.699 12.1379C13.699 12.2387 13.739 12.3354 13.8103 12.4066C13.8816 12.4779 13.9782 12.5179 14.079 12.5179Z" fill="#231F20"/>
<path id="Vector_5" d="M10.7031 11.2396L9.82984 12.1128L9.49316 11.7761C9.4581 11.7398 9.41617 11.7109 9.36981 11.691C9.32345 11.671 9.27359 11.6606 9.22313 11.6601C9.17267 11.6597 9.12264 11.6693 9.07594 11.6884C9.02924 11.7075 8.98681 11.7357 8.95113 11.7714C8.91545 11.8071 8.88723 11.8495 8.86813 11.8962C8.84902 11.9429 8.8394 11.993 8.83984 12.0434C8.84028 12.0939 8.85076 12.1437 8.87068 12.1901C8.8906 12.2365 8.91954 12.2784 8.95584 12.3134L9.56384 12.9214C9.6351 12.9927 9.73174 13.0327 9.8325 13.0327C9.93326 13.0327 10.0299 12.9927 10.1012 12.9214L11.2412 11.7814C11.3104 11.7098 11.3487 11.6138 11.3478 11.5141C11.3469 11.4145 11.307 11.3192 11.2365 11.2488C11.1661 11.1783 11.0708 11.1383 10.9711 11.1375C10.8715 11.1366 10.7755 11.1749 10.7038 11.2441L10.7031 11.2396Z" fill="#231F20"/>
<path id="Vector_6" d="M9.956 9.41858C9.41833 9.41843 8.89268 9.57772 8.44554 9.87631C7.9984 10.1749 7.64984 10.5994 7.44394 11.0961C7.23805 11.5928 7.18406 12.1393 7.28881 12.6667C7.39355 13.1941 7.65233 13.6785 8.03242 14.0588C8.4125 14.4391 8.89682 14.6982 9.42414 14.8032C9.95145 14.9083 10.4981 14.8546 10.9949 14.649C11.4917 14.4434 11.9163 14.095 12.2152 13.6481C12.514 13.2011 12.6736 12.6755 12.6738 12.1379C12.673 11.4172 12.3864 10.7262 11.8769 10.2165C11.3675 9.70672 10.6767 9.41979 9.956 9.41858ZM9.956 14.0956C9.56858 14.0958 9.18981 13.981 8.86762 13.7659C8.54542 13.5507 8.29428 13.2448 8.14595 12.8869C7.99762 12.529 7.95877 12.1352 8.03431 11.7552C8.10986 11.3752 8.29641 11.0262 8.57036 10.7522C8.84431 10.4783 9.19335 10.2917 9.57334 10.2162C9.95332 10.1406 10.3472 10.1795 10.7051 10.3278C11.063 10.4761 11.3689 10.7273 11.584 11.0495C11.7992 11.3717 11.9139 11.7504 11.9138 12.1379C11.913 12.6568 11.7064 13.1543 11.3395 13.5213C10.9725 13.8883 10.475 14.0948 9.956 14.0956Z" fill="#231F20"/>
<path id="Vector_7" d="M21.052 19.12H14.079C13.9782 19.12 13.8816 19.16 13.8103 19.2313C13.739 19.3026 13.699 19.3992 13.699 19.5C13.699 19.6008 13.739 19.6974 13.8103 19.7687C13.8816 19.84 13.9782 19.88 14.079 19.88H21.052C21.1528 19.88 21.2494 19.84 21.3207 19.7687C21.392 19.6974 21.432 19.6008 21.432 19.5C21.432 19.3992 21.392 19.3026 21.3207 19.2313C21.2494 19.16 21.1528 19.12 21.052 19.12Z" fill="#231F20"/>
<path id="Vector_8" d="M10.7031 18.6016L9.82984 19.4756L9.49316 19.1382C9.4581 19.1019 9.41617 19.0729 9.36981 19.053C9.32345 19.0331 9.27359 19.0226 9.22313 19.0222C9.17267 19.0217 9.12264 19.0314 9.07594 19.0505C9.02924 19.0696 8.98681 19.0978 8.95113 19.1335C8.91545 19.1692 8.88723 19.2116 8.86813 19.2583C8.84902 19.305 8.8394 19.355 8.83984 19.4055C8.84028 19.4559 8.85076 19.5058 8.87068 19.5522C8.8906 19.5985 8.91954 19.6404 8.95584 19.6755L9.56384 20.2835C9.6351 20.3547 9.73174 20.3948 9.8325 20.3948C9.93326 20.3948 10.0299 20.3547 10.1012 20.2835L11.2412 19.1435C11.3104 19.0718 11.3487 18.9758 11.3478 18.8762C11.3469 18.7766 11.307 18.6813 11.2365 18.6108C11.1661 18.5404 11.0708 18.5004 10.9711 18.4995C10.8715 18.4987 10.7755 18.537 10.7038 18.6062L10.7031 18.6016Z" fill="#231F20"/>
<path id="Vector_9" d="M9.956 16.7822C9.41845 16.7821 8.89292 16.9413 8.44589 17.2399C7.99885 17.5384 7.65039 17.9628 7.44458 18.4594C7.23876 18.956 7.18483 19.5025 7.28961 20.0297C7.39439 20.557 7.65317 21.0413 8.03323 21.4215C8.41328 21.8016 8.89754 22.0605 9.42475 22.1655C9.95197 22.2704 10.4985 22.2166 10.9951 22.0109C11.4918 21.8053 11.9163 21.4569 12.2149 21.01C12.5136 20.563 12.673 20.0375 12.673 19.5C12.672 18.7796 12.3854 18.0891 11.8761 17.5796C11.3668 17.0702 10.6764 16.7834 9.956 16.7822ZM9.956 21.4577C9.56876 21.4579 9.19017 21.3432 8.86812 21.1282C8.54607 20.9131 8.29502 20.6074 8.14673 20.2497C7.99843 19.892 7.95955 19.4983 8.03501 19.1185C8.11046 18.7387 8.29686 18.3898 8.57063 18.1159C8.84439 17.842 9.19323 17.6555 9.57302 17.5799C9.95281 17.5043 10.3465 17.543 10.7043 17.6912C11.062 17.8393 11.3679 18.0903 11.583 18.4122C11.7982 18.7342 11.913 19.1127 11.913 19.5C11.9124 20.0189 11.706 20.5164 11.3392 20.8834C10.9723 21.2504 10.4749 21.4569 9.956 21.4577Z" fill="#231F20"/>
<path id="Vector_10" d="M17.0635 26.4829H14.079C13.9782 26.4829 13.8816 26.5229 13.8103 26.5942C13.739 26.6655 13.699 26.7621 13.699 26.8629C13.699 26.9637 13.739 27.0603 13.8103 27.1316C13.8816 27.2029 13.9782 27.2429 14.079 27.2429H17.0635C17.1643 27.2429 17.261 27.2029 17.3322 27.1316C17.4035 27.0603 17.4435 26.9637 17.4435 26.8629C17.4435 26.7621 17.4035 26.6655 17.3322 26.5942C17.261 26.5229 17.1643 26.4829 17.0635 26.4829Z" fill="#231F20"/>
<path id="Vector_11" d="M10.7031 25.9653L9.82984 26.8377L9.49316 26.5018C9.4581 26.4655 9.41617 26.4366 9.36981 26.4167C9.32345 26.3968 9.27359 26.3863 9.22313 26.3858C9.17267 26.3854 9.12264 26.395 9.07594 26.4141C9.02924 26.4332 8.98681 26.4614 8.95113 26.4971C8.91545 26.5328 8.88723 26.5752 8.86813 26.6219C8.84902 26.6686 8.8394 26.7187 8.83984 26.7691C8.84028 26.8196 8.85076 26.8694 8.87068 26.9158C8.8906 26.9622 8.91954 27.0041 8.95584 27.0391L9.56384 27.6472C9.6351 27.7184 9.73174 27.7584 9.8325 27.7584C9.93326 27.7584 10.0299 27.7184 10.1012 27.6472L11.2412 26.5072C11.3104 26.4355 11.3487 26.3395 11.3478 26.2399C11.3469 26.1402 11.307 26.0449 11.2365 25.9745C11.1661 25.904 11.0708 25.864 10.9711 25.8632C10.8715 25.8623 10.7755 25.9006 10.7038 25.9698L10.7031 25.9653Z" fill="#231F20"/>
<path id="Vector_12" d="M9.956 24.1444C9.41829 24.1443 8.89262 24.3036 8.44546 24.6022C7.9983 24.9008 7.64975 25.3253 7.44387 25.8221C7.238 26.3188 7.18405 26.8654 7.28886 27.3928C7.39367 27.9202 7.65252 28.4047 8.03269 28.7849C8.41285 29.1652 8.89724 29.4242 9.4246 29.5292C9.95196 29.6341 10.4986 29.5803 10.9954 29.3746C11.4922 29.1689 11.9168 28.8204 12.2156 28.3733C12.5143 27.9263 12.6738 27.4006 12.6738 26.8629C12.6728 26.1424 12.3861 25.4516 11.8767 24.942C11.3672 24.4324 10.6766 24.1456 9.956 24.1444ZM9.956 28.8214C9.56861 28.8216 9.18987 28.7069 8.8677 28.4917C8.54552 28.2766 8.29437 27.9708 8.14602 27.6129C7.99767 27.2551 7.95877 26.8613 8.03426 26.4813C8.10974 26.1013 8.29621 25.7523 8.57009 25.4783C8.84396 25.2043 9.19293 25.0177 9.57287 24.9421C9.95281 24.8665 10.3466 24.9052 10.7046 25.0534C11.0625 25.2016 11.3684 25.4527 11.5836 25.7748C11.7989 26.0968 11.9138 26.4755 11.9138 26.8629C11.913 27.382 11.7065 27.8796 11.3395 28.2467C10.9725 28.6138 10.4751 28.8204 9.956 28.8214Z" fill="#231F20"/>
<path id="Vector_13" d="M24.4872 5.82005V18.7157L23.0782 20.1248V6.44477C23.0782 6.34399 23.0381 6.24734 22.9669 6.17607C22.8956 6.10481 22.7989 6.06477 22.6982 6.06477H19.6217C19.6583 5.89723 19.6771 5.7263 19.6779 5.55481V4.68005H23.3472C23.6495 4.68005 23.9395 4.80016 24.1533 5.01395C24.3671 5.22774 24.4872 5.51771 24.4872 5.82005Z" fill="#D76D3F"/>
<path id="Vector_14" d="M21.3203 25.7533L20.3862 24.8185L20.979 23.4702L22.6685 25.1605L21.3203 25.7533Z" fill="#F7D2D0"/>
<path id="Vector_15" d="M20.0587 25.5648L20.574 26.0816L19.6536 26.4859L20.0587 25.5648Z" fill="#00A1D3"/>
<path id="Vector_16" d="M18.9179 5.55405C18.9173 5.99542 18.7415 6.41849 18.4291 6.73029C18.1168 7.0421 17.6934 7.21714 17.252 7.21693H11.4122C10.9714 7.21633 10.5489 7.04092 10.2373 6.72917C9.92566 6.41743 9.75044 5.99482 9.75004 5.55405V4.68005H18.9179V5.55405Z" fill="#C6B9C4"/>
<path id="Vector_17" d="M31.8017 12.476L21.4309 22.8468L23.292 24.7078L33.6627 14.3371L31.8017 12.476Z" fill="#FF8E5A"/>
</g>
</svg>
