<svg width="600" height="222" viewBox="0 0 600 222" fill="none" xmlns="http://www.w3.org/2000/svg">
<rect x="40" y="64" width="40" height="40" rx="12" fill="#09090B"/>
<path fill-rule="evenodd" clip-rule="evenodd" d="M50 74V94L69.9995 74H50ZM62.0004 86.0002L54 94H70L62.0004 86.0002Z" fill="white"/>
<rect x="40" y="10" width="40" height="40" rx="12" fill="#09090B"/>
<path d="M65.3296 32.7046L65.3192 32.6717L71.8815 26.664V23.7694H61.3534V26.664H67.6418L67.6522 26.6918L61.1541 32.7046V35.5992H71.9872V32.7046H65.3296Z" fill="white"/>
<path d="M59.8315 32.7046H48V35.6027H59.8315V32.7046Z" fill="white"/>
<rect x="94" y="37" width="40" height="40" rx="12" fill="#09090B"/>
<path d="M105.645 57C105.645 58.5652 106.086 60.0987 106.918 61.425C107.749 62.7514 108.936 63.817 110.345 64.5L106.368 53.6077C105.891 54.6752 105.645 55.831 105.645 57ZM114.126 57.7269L111.626 64.9923C112.389 65.2202 113.182 65.3355 113.979 65.3346C114.923 65.334 115.859 65.174 116.749 64.8615C116.724 64.8256 116.703 64.7869 116.687 64.7461L114.126 57.7269Z" fill="white"/>
<path d="M113.979 47C111.327 47 108.784 48.0536 106.908 49.9289C105.033 51.8043 103.979 54.3478 103.979 57C103.979 59.6522 105.033 62.1957 106.908 64.0711C108.784 65.9464 111.327 67 113.979 67C116.632 67 119.175 65.9464 121.051 64.0711C122.926 62.1957 123.979 59.6522 123.979 57C123.979 54.3478 122.926 51.8043 121.051 49.9289C119.175 48.0536 116.632 47 113.979 47ZM121.776 62.2538C120.556 64.0602 118.748 65.3873 116.659 66.0088C114.57 66.6302 112.33 66.5075 110.322 65.6615C108.069 64.7074 106.276 62.9143 105.322 60.6615C104.591 58.9387 104.392 57.0367 104.751 55.2C105.109 53.3632 106.009 51.6756 107.333 50.3538C108.656 49.0319 110.343 48.1341 112.178 47.7751C114.013 47.4161 115.914 47.6123 117.637 48.3385C119.89 49.2926 121.683 51.0857 122.637 53.3385C123.246 54.7785 123.486 56.3478 123.335 57.904C123.184 59.4602 122.646 60.954 121.772 62.25L121.776 62.2538Z" fill="white"/>
<path d="M121.287 53.0038C121.327 53.2869 121.346 53.5719 121.345 53.8577C121.331 54.8845 121.115 55.8986 120.71 56.8423L118.168 64.2038C120.046 63.1125 121.423 61.3307 122.006 59.2383C122.589 57.146 122.331 54.9087 121.287 53.0038ZM119.607 56.5808C119.596 55.7625 119.358 54.9634 118.918 54.2731C118.495 53.5884 118.099 53.0077 118.099 52.3192C118.092 51.9389 118.234 51.571 118.496 51.2953C118.759 51.0196 119.119 50.8582 119.499 50.8461H119.607C118.717 50.0312 117.66 49.4194 116.51 49.0531C115.361 48.6868 114.145 48.5747 112.948 48.7247C111.75 48.8747 110.6 49.2831 109.576 49.9217C108.552 50.5603 107.679 51.4138 107.018 52.4231H107.553C108.426 52.4231 109.776 52.3192 109.776 52.3192C109.863 52.3196 109.947 52.3528 110.011 52.4124C110.074 52.4719 110.113 52.5533 110.12 52.6403C110.126 52.7273 110.099 52.8134 110.045 52.8816C109.99 52.9497 109.912 52.9947 109.826 53.0077C109.826 53.0077 109.376 53.0577 108.876 53.0846L111.907 62.1115L113.733 56.6423L112.441 53.0923C111.991 53.0654 111.568 53.0154 111.568 53.0154C111.481 53.0024 111.403 52.957 111.349 52.8885C111.294 52.82 111.268 52.7333 111.274 52.6461C111.281 52.5588 111.321 52.4773 111.385 52.4181C111.45 52.3589 111.534 52.3263 111.622 52.3269C111.622 52.3269 112.995 52.4308 113.814 52.4308C114.633 52.4308 116.037 52.3269 116.037 52.3269C116.125 52.3263 116.209 52.3589 116.274 52.4181C116.338 52.4773 116.378 52.5588 116.385 52.6461C116.392 52.7333 116.365 52.82 116.311 52.8885C116.256 52.957 116.178 53.0024 116.091 53.0154C116.091 53.0154 115.637 53.0654 115.137 53.0923L118.149 62.05L119.007 59.3269C119.339 58.4456 119.541 57.5205 119.607 56.5808Z" fill="white"/>
<rect x="94" y="145" width="40" height="40" rx="12" fill="#09090B"/>
<path d="M109.883 159.823C109.819 160.153 109.895 160.488 110.097 160.754C110.23 160.928 110.404 161.073 110.6 161.159C110.832 161.24 111.086 161.229 111.312 161.142C111.537 161.067 111.786 161.078 112 161.182C112.214 161.287 112.376 161.472 112.457 161.697C112.671 162.143 112.497 162.675 112.064 162.906C111.769 163.057 111.56 163.334 111.508 163.664C111.479 163.808 111.479 163.959 111.508 164.103C111.607 164.601 112.035 164.965 112.544 164.977C113.047 164.971 113.469 165.37 113.475 165.879C113.481 166.382 113.082 166.805 112.573 166.81C112.069 166.822 111.641 167.192 111.566 167.695C111.479 168.17 111.728 168.644 112.174 168.846C112.63 169.031 112.85 169.546 112.677 170.009C112.607 170.229 112.451 170.414 112.243 170.518C112.035 170.622 111.798 170.639 111.578 170.564C111.092 170.431 110.577 170.634 110.317 171.067C110.022 171.472 110.045 172.022 110.369 172.404H105.62C107.98 171.241 109.582 168.8 109.53 165.769C109.484 162.976 107.627 160.87 105.678 159.823H109.883Z" fill="white" fill-opacity="0.6"/>
<path d="M123.348 156C124.031 156 124.58 156.555 124.58 157.232V172.768C124.58 173.451 124.025 174 123.348 174H104.232C103.549 174 103 173.445 103 172.768V157.232C103 156.555 103.555 156 104.232 156H123.348ZM122.996 159.823H104.573V172.404H122.996V159.823ZM122.18 157.186C121.746 157.186 121.393 157.539 121.393 157.972C121.393 158.406 121.746 158.759 122.18 158.759C122.614 158.759 122.967 158.406 122.967 157.972C122.967 157.539 122.614 157.186 122.18 157.186ZM119.369 157.186C119.161 157.186 118.958 157.267 118.814 157.417C118.669 157.567 118.582 157.764 118.582 157.972C118.582 158.406 118.935 158.759 119.369 158.759C119.803 158.759 120.156 158.406 120.156 157.972C120.156 157.539 119.803 157.186 119.369 157.186ZM116.558 157.186C116.124 157.186 115.771 157.539 115.771 157.972C115.771 158.406 116.124 158.759 116.558 158.759C116.992 158.759 117.344 158.406 117.344 157.972C117.344 157.539 116.992 157.186 116.558 157.186Z" fill="white"/>
<path d="M121.781 159.823C119.12 161.188 117.535 164.121 118.108 167.476C118.513 169.847 120.173 171.513 121.96 172.398H116.344C116.136 172.294 115.962 172.138 115.841 171.941C115.557 171.536 115.644 170.975 116.043 170.68C116.315 170.489 116.477 170.171 116.477 169.841C116.477 169.691 116.46 169.546 116.413 169.407C116.24 168.933 115.76 168.638 115.256 168.702C114.759 168.789 114.285 168.453 114.198 167.956C114.111 167.458 114.447 166.984 114.944 166.897C115.424 166.799 115.777 166.382 115.783 165.885C115.794 165.399 115.476 164.971 115.008 164.838C114.533 164.717 114.238 164.242 114.343 163.768C114.377 163.537 114.504 163.328 114.695 163.195C114.886 163.062 115.123 163.01 115.355 163.051C115.858 163.109 116.338 162.831 116.529 162.362C116.766 161.911 116.656 161.362 116.263 161.038C115.881 160.749 115.794 160.217 116.06 159.823H121.787H121.781Z" fill="white" fill-opacity="0.8"/>
<rect x="466" y="145" width="40" height="40" rx="12" fill="#09090B"/>
<path d="M482.204 173.943C482.599 174.321 482.32 174.969 481.76 174.969H478.254C477.563 174.969 477 174.43 477 173.767V170.405C477 169.868 477.676 169.601 478.07 169.979L482.204 173.943Z" fill="white"/>
<path d="M487.683 174.235C486.646 173.216 486.646 171.562 487.683 170.543L491.428 166.863C492.466 165.843 494.148 165.843 495.186 166.863C496.223 167.882 496.223 169.536 495.186 170.555L491.441 174.235C490.403 175.255 488.721 175.255 487.683 174.235Z" fill="white"/>
<path d="M477.79 164.988C476.753 163.969 476.753 162.315 477.79 161.296L483.418 155.765C484.456 154.745 486.138 154.745 487.176 155.765C488.213 156.784 488.213 158.438 487.176 159.457L481.548 164.988C480.51 166.008 478.828 166.008 477.79 164.988Z" fill="white"/>
<path d="M482.942 169.405C481.905 168.386 481.905 166.732 482.942 165.713L491.457 157.345C492.495 156.325 494.177 156.325 495.215 157.345C496.252 158.364 496.252 160.018 495.215 161.037L486.7 169.405C485.662 170.425 483.98 170.425 482.942 169.405Z" fill="white"/>
<rect x="40" y="118" width="40" height="40" rx="12" fill="#09090B"/>
<path d="M65.1948 130.929H54V133.236H58.3777V145.784H60.8673V133.236H65.1948V130.929Z" fill="white"/>
<path d="M80 30H288C290.209 30 292 31.7909 292 34V70" stroke="url(#paint0_linear_1_1726)"/>
<path d="M520 30H312C309.791 30 308 31.7909 308 34V70" stroke="url(#paint1_linear_1_1726)"/>
<path d="M134 56H288C290.209 56 292 57.7909 292 60V64" stroke="url(#paint2_linear_1_1726)"/>
<path d="M466 56H312C309.791 56 308 57.7909 308 60V64" stroke="url(#paint3_linear_1_1726)"/>
<path d="M80 192H288C290.209 192 292 190.209 292 188V161" stroke="url(#paint4_linear_1_1726)"/>
<path d="M520 192H312C309.791 192 308 190.209 308 188V161" stroke="url(#paint5_linear_1_1726)"/>
<path d="M134 167H288C290.209 167 292 165.209 292 163V159" stroke="url(#paint6_linear_1_1726)"/>
<path d="M466 167H312C309.791 167 308 165.209 308 163V159" stroke="url(#paint7_linear_1_1726)"/>
<rect x="94" y="91" width="40" height="40" rx="12" fill="#09090B"/>
<path d="M122.405 100.375V106.477C121.369 105.665 120.084 105.224 118.76 105.226C116.813 105.226 115.087 106.164 114.02 107.603C113.288 108.591 112.894 109.783 112.896 111.006C112.889 111.957 112.502 112.867 111.818 113.537C111.134 114.208 110.209 114.585 109.244 114.586C108.28 114.586 107.355 114.209 106.672 113.539C105.989 112.868 105.604 111.958 105.6 111.007V110.98C105.603 110.187 105.873 109.417 106.367 108.79C106.861 108.164 107.552 107.717 108.331 107.518C109.11 107.319 109.934 107.38 110.674 107.691C111.415 108.003 112.03 108.547 112.423 109.239C112.498 108.992 112.669 108.461 112.911 107.996C113.12 107.591 113.391 107.241 113.54 107.062C112.992 106.478 112.327 106.013 111.587 105.695C110.848 105.377 110.05 105.213 109.243 105.214C106.042 105.214 103.44 107.742 103.38 110.883H103.375V121.625H105.599V115.523C106.634 116.335 107.92 116.776 109.243 116.774C111.199 116.774 112.932 115.831 113.996 114.38C114.692 113.436 115.099 112.275 115.099 111.017C115.099 111.007 115.104 111.019 115.115 111.046L115.114 111.006C115.112 110.054 115.494 109.139 116.176 108.464C116.858 107.789 117.784 107.409 118.75 107.407C119.717 107.405 120.645 107.781 121.33 108.454C122.015 109.126 122.4 110.039 122.402 110.991V111.021C122.399 111.815 122.129 112.584 121.634 113.211C121.14 113.837 120.449 114.284 119.67 114.483C118.89 114.681 118.066 114.62 117.326 114.308C116.586 113.996 115.971 113.451 115.578 112.759C115.508 112.993 115.332 113.544 115.082 114.026C114.879 114.42 114.618 114.761 114.467 114.944C115.015 115.526 115.68 115.99 116.418 116.307C117.157 116.623 117.954 116.787 118.759 116.786C121.96 116.786 124.562 114.258 124.62 111.118H124.625V100.376L122.405 100.375Z" fill="white"/>
<rect x="466" y="37" width="40" height="40" rx="12" fill="#09090B"/>
<path d="M491.357 53.3718V50.8412C491.686 50.685 491.965 50.4369 492.161 50.126C492.357 49.815 492.462 49.454 492.464 49.0849V49.0268C492.464 47.9506 491.604 47.0781 490.544 47.0781H490.486C489.977 47.0781 489.489 47.2834 489.129 47.6489C488.768 48.0143 488.566 48.51 488.566 49.0268V49.0849C488.568 49.454 488.673 49.815 488.869 50.126C489.065 50.4369 489.344 50.685 489.673 50.8412V53.3718C488.726 53.5189 487.834 53.9174 487.088 54.5269L480.25 49.1215C480.298 48.9428 480.324 48.7591 480.327 48.5748C480.327 48.1405 480.201 47.7157 479.964 47.3542C479.727 46.9926 479.39 46.7105 478.995 46.5436C478.6 46.3767 478.165 46.3325 477.745 46.4165C477.325 46.5004 476.939 46.7089 476.636 47.0155C476.333 47.3221 476.126 47.713 476.042 48.1388C475.958 48.5646 476 49.0062 476.163 49.4076C476.327 49.8091 476.603 50.1524 476.959 50.3942C477.314 50.636 477.733 50.7653 478.16 50.7659C478.535 50.7641 478.902 50.6627 479.226 50.4717L485.96 55.7896C485.355 56.7171 485.039 57.808 485.054 58.9201C485.069 60.0322 485.414 61.114 486.043 62.0244L483.995 64.1037C483.829 64.0499 483.657 64.0214 483.483 64.019C483.132 64.0193 482.789 64.1252 482.497 64.3235C482.205 64.5217 481.977 64.8033 481.843 65.1327C481.709 65.4621 481.674 65.8245 481.742 66.1741C481.811 66.5237 481.98 66.8448 482.228 67.0969C482.477 67.349 482.793 67.5207 483.138 67.5903C483.482 67.6599 483.839 67.6243 484.164 67.488C484.488 67.3517 484.766 67.1209 484.961 66.8246C485.156 66.5283 485.261 66.1799 485.261 65.8234C485.259 65.647 485.231 65.472 485.178 65.304L487.204 63.247C487.865 63.7632 488.633 64.1191 489.45 64.2874C490.267 64.4557 491.112 64.4319 491.918 64.2179C492.725 64.0039 493.473 63.6054 494.104 63.0528C494.736 62.5002 495.234 61.8082 495.562 61.0299C495.889 60.2516 496.036 59.4076 495.992 58.5625C495.949 57.7175 495.715 56.8938 495.309 56.1546C494.903 55.4154 494.336 54.7803 493.651 54.2979C492.966 53.8156 492.181 53.4987 491.357 53.3718ZM490.517 61.6944C490.142 61.7049 489.769 61.639 489.421 61.5008C489.072 61.3626 488.753 61.1548 488.485 60.8897C488.216 60.6246 488.003 60.3076 487.857 59.9574C487.712 59.6072 487.636 59.2309 487.636 58.8507C487.636 58.4705 487.712 58.0942 487.857 57.744C488.003 57.3938 488.216 57.0768 488.485 56.8117C488.753 56.5466 489.072 56.3388 489.421 56.2006C489.769 56.0624 490.142 55.9966 490.517 56.007C491.242 56.0328 491.93 56.3434 492.435 56.8735C492.939 57.4035 493.221 58.1116 493.222 58.8486C493.222 59.5856 492.941 60.294 492.436 60.8245C491.932 61.3551 491.245 61.6664 490.519 61.693" fill="white"/>
<rect x="520" y="10" width="40" height="40" rx="12" fill="#09090B"/>
<path d="M547.364 31.0055C547.364 31.1839 547.293 31.3548 547.168 31.4809C547.043 31.6069 546.874 31.6778 546.697 31.6778C546.52 31.6778 546.35 31.6069 546.225 31.4809C546.1 31.3548 546.03 31.1839 546.03 31.0055V25C546.03 24.8217 546.1 24.6508 546.225 24.5247C546.35 24.3986 546.52 24.3278 546.697 24.3278C546.874 24.3278 547.043 24.3986 547.168 24.5247C547.293 24.6508 547.364 24.8217 547.364 25V31.0055ZM547.132 35.1667C547.044 35.2555 544.563 37.3389 540.016 37.3389C535.468 37.3389 533.004 35.2667 532.899 35.1777C532.833 35.1217 532.779 35.053 532.739 34.9757C532.7 34.8983 532.676 34.8139 532.669 34.7272C532.661 34.6405 532.671 34.5532 532.698 34.4704C532.724 34.3875 532.766 34.3107 532.822 34.2444C532.937 34.1102 533.101 34.0273 533.276 34.0137C533.452 34.0002 533.625 34.0572 533.759 34.1722C533.798 34.2 536.014 36.0111 540.01 36.0111C544.007 36.0111 546.239 34.1889 546.261 34.1722C546.397 34.0582 546.571 34.0019 546.747 34.0154C546.923 34.0289 547.087 34.1111 547.204 34.2444C547.316 34.3767 547.372 34.5483 547.36 34.722C547.348 34.8957 547.268 35.0575 547.138 35.1722L547.132 35.1667ZM532.662 25C532.672 24.8212 532.752 24.6536 532.884 24.5339C533.017 24.4141 533.19 24.3521 533.368 24.3611C533.533 24.3706 533.688 24.4411 533.804 24.559C533.92 24.677 533.988 24.8341 533.996 25V30.9945C533.996 31.1727 533.926 31.3437 533.801 31.4697C533.676 31.5959 533.506 31.6667 533.329 31.6667C533.153 31.6667 532.983 31.5959 532.858 31.4697C532.733 31.3437 532.662 31.1727 532.662 30.9945V25ZM536.008 23.6667C536.018 23.4879 536.098 23.3203 536.23 23.2005C536.363 23.0808 536.536 23.0187 536.714 23.0278C536.878 23.0372 537.034 23.1077 537.15 23.2257C537.266 23.3437 537.334 23.5008 537.342 23.6667V32.5555C537.342 32.7339 537.272 32.9048 537.147 33.0309C537.022 33.1569 536.852 33.2277 536.675 33.2277C536.498 33.2277 536.329 33.1569 536.204 33.0309C536.079 32.9048 536.008 32.7339 536.008 32.5555V23.6667ZM539.371 23.3334C539.371 23.1551 539.441 22.9841 539.566 22.858C539.691 22.732 539.861 22.6611 540.038 22.6611C540.215 22.6611 540.384 22.732 540.509 22.858C540.635 22.9841 540.705 23.1551 540.705 23.3334V33C540.705 33.1782 540.635 33.3492 540.509 33.4754C540.384 33.6014 540.215 33.6722 540.038 33.6722C539.861 33.6722 539.691 33.6014 539.566 33.4754C539.441 33.3492 539.371 33.1782 539.371 33V23.3334ZM542.678 23.6667C542.678 23.4884 542.749 23.3174 542.874 23.1914C542.999 23.0653 543.168 22.9945 543.345 22.9945C543.522 22.9945 543.692 23.0653 543.817 23.1914C543.942 23.3174 544.012 23.4884 544.012 23.6667V32.5555C544.012 32.7339 543.942 32.9048 543.817 33.0309C543.692 33.1569 543.522 33.2277 543.345 33.2277C543.168 33.2277 542.999 33.1569 542.874 33.0309C542.749 32.9048 542.678 32.7339 542.678 32.5555V23.6667ZM547.546 20.0001H532.508C532.18 19.9979 531.856 20.0608 531.552 20.1853C531.249 20.3099 530.972 20.4935 530.739 20.7257C530.507 20.9579 530.321 21.2342 530.194 21.5386C530.068 21.8431 530.001 22.1698 530 22.5V37.5C530.001 37.8302 530.068 38.1569 530.194 38.4614C530.321 38.7658 530.507 39.0421 530.739 39.2743C530.972 39.5065 531.249 39.6902 531.552 39.8146C531.856 39.9392 532.18 40.0021 532.508 39.9999H547.546C547.873 40.0021 548.197 39.9394 548.5 39.8152C548.803 39.6911 549.079 39.5079 549.312 39.2762C549.545 39.0446 549.73 38.769 549.858 38.4652C549.985 38.1614 550.051 37.8353 550.054 37.5055V22.5C550.052 22.1703 549.986 21.844 549.86 21.5399C549.733 21.2358 549.549 20.9598 549.316 20.7277C549.084 20.4955 548.808 20.3118 548.505 20.1869C548.203 20.0621 547.878 19.9986 547.551 20.0001" fill="white"/>
<rect x="520" y="118" width="40" height="40" rx="12" fill="#09090B"/>
<path d="M536.529 139.294L537.824 135.294H538.824L540.118 139.294L543.235 129.412L543.471 128.647L543.588 128.706C545 129.235 546.118 130 547.059 130.941C548.941 132.824 550 135.353 550 138C550 140.647 548.941 143.176 547.059 145.059C545.647 146.471 543.824 147.412 541.882 147.824L541.706 147.882L542.118 146.529H542.176C543.706 146.118 545.059 145.353 546.176 144.235C547.824 142.588 548.765 140.353 548.765 138.059C548.765 135.706 547.824 133.529 546.176 131.882C545.647 131.353 545 130.882 544.353 130.471C543.176 134.118 542 137.706 540.765 141.353V141.412H539.706L538.412 137.588L537.059 141.353H536L533.941 135.353H535.294L536.529 139.294Z" fill="white"/>
<path d="M544.118 133.529H545.412L545 134.824H543.706L544.118 133.529Z" fill="white"/>
<path d="M539.941 146.765L543.529 135.353H544.824L540.824 148H540.765C540.529 148 540.235 148 540 148C537.353 148 534.824 146.941 532.941 145.059C531.059 143.176 530 140.647 530 138C530 135.353 531.059 132.824 532.941 130.941C534.824 129.059 537.353 128 540 128C540.941 128 541.882 128.118 542.765 128.412L542.882 128.471L542.529 129.647L542.412 129.588C541.647 129.353 540.824 129.235 540 129.235C537.647 129.235 535.471 130.176 533.824 131.824C532.176 133.471 531.235 135.647 531.235 138C531.235 140.353 532.176 142.529 533.824 144.176C535.412 145.824 537.647 146.706 539.941 146.765Z" fill="white"/>
<rect x="466" y="91" width="40" height="40" rx="12" fill="#09090B"/>
<path d="M486.552 108.166H485.776C484.347 108.166 483.408 109.186 483.408 110.493V111.554C483.408 112.86 484.347 113.881 485.776 113.881H486.552C488.634 113.881 488.47 111.758 491.614 111.758C491.912 111.758 492.21 111.785 492.502 111.84C492.598 111.3 492.598 110.747 492.502 110.207C492.21 110.261 491.912 110.289 491.614 110.289C488.469 110.289 488.634 108.166 486.552 108.166Z" fill="white"/>
<path d="M494.309 112.616C493.773 112.223 493.156 111.958 492.503 111.839C492.503 111.845 492.503 111.85 492.503 111.855C492.447 112.168 492.359 112.474 492.241 112.77C492.78 112.853 493.292 113.064 493.734 113.385C493.734 113.389 493.731 113.394 493.73 113.399C493.161 115.24 491.951 116.816 490.319 117.841C488.687 118.866 486.742 119.271 484.837 118.983C482.931 118.696 481.192 117.735 479.935 116.274C478.679 114.813 477.987 112.95 477.987 111.023C477.987 109.096 478.679 107.233 479.935 105.773C481.192 104.312 482.931 103.351 484.837 103.063C486.742 102.776 488.687 103.181 490.319 104.206C491.951 105.231 493.161 106.807 493.73 108.648C493.73 108.653 493.732 108.658 493.734 108.662C493.292 108.983 492.78 109.193 492.241 109.276C492.359 109.572 492.447 109.879 492.503 110.192C492.503 110.197 492.503 110.202 492.503 110.207C493.156 110.088 493.773 109.823 494.309 109.431C494.824 109.05 494.724 108.62 494.646 108.365C494.01 106.3 492.654 104.533 490.825 103.384C488.996 102.234 486.815 101.779 484.679 102.101C482.543 102.423 480.593 103.5 479.184 105.137C477.775 106.775 477 108.863 477 111.023C477 113.183 477.775 115.272 479.184 116.909C480.593 118.547 482.543 119.624 484.679 119.946C486.815 120.268 488.996 119.812 490.825 118.663C492.654 117.514 494.01 115.746 494.646 113.682C494.724 113.427 494.824 112.997 494.309 112.616Z" fill="white"/>
<path d="M489.138 113.702C488.565 114.211 487.849 114.843 486.552 114.843H485.776C484.837 114.843 483.983 114.502 483.372 113.884C482.775 113.279 482.446 112.452 482.446 111.554V110.492C482.446 109.595 482.775 108.767 483.372 108.163C483.983 107.544 484.837 107.204 485.776 107.204H486.552C487.851 107.204 488.565 107.836 489.138 108.344C489.733 108.868 490.246 109.327 491.615 109.327C491.823 109.327 492.032 109.31 492.238 109.277L492.233 109.265C492.151 109.061 492.055 108.864 491.945 108.673L491.031 107.089C490.618 106.374 490.025 105.781 489.31 105.369C488.596 104.956 487.785 104.739 486.961 104.739H485.131C484.306 104.739 483.495 104.956 482.781 105.369C482.066 105.781 481.473 106.374 481.061 107.089L480.146 108.673C479.733 109.388 479.516 110.198 479.516 111.023C479.516 111.848 479.733 112.659 480.146 113.373L481.061 114.958C481.473 115.672 482.066 116.265 482.781 116.678C483.495 117.09 484.306 117.307 485.131 117.307H486.961C487.785 117.307 488.596 117.09 489.31 116.678C490.025 116.265 490.618 115.672 491.031 114.958L491.945 113.376C492.055 113.186 492.151 112.988 492.233 112.784L492.238 112.773C492.032 112.739 491.823 112.721 491.615 112.72C490.246 112.72 489.733 113.176 489.138 113.703" fill="white"/>
<rect x="40" y="172" width="40" height="40" rx="12" fill="#09090B"/>
<path d="M70 183.25L58.4038 200.268C58.4038 200.268 57.8521 201.453 56.8582 200.107C55.8642 198.761 50.3973 191.275 50.3973 191.275C50.3973 191.275 49.1814 189.767 51.0037 190.682L56.5815 192.782C56.5815 192.782 57.9068 193.428 59.1774 192.297C60.448 191.166 70 183.25 70 183.25Z" fill="white"/>
<rect x="520" y="64" width="40" height="40" rx="12" fill="#09090B"/>
<path d="M541.59 74C539.31 74 537.988 75.0093 537.356 75.6822C537.279 75.0841 536.876 74.3178 535.305 74.3178H531.875V77.7944H533.274C533.504 77.7944 533.58 77.8692 533.58 78.0935V94H537.643V88.0561V87.6075C538.275 88.1682 539.483 88.9533 541.38 88.9533C545.346 88.9533 548.125 85.8879 548.125 81.4766C548.144 77.0093 545.5 74 541.59 74ZM540.766 85.4953C538.582 85.4953 537.585 83.4579 537.585 81.5514C537.585 78.5607 539.253 77.4953 540.824 77.4953C542.74 77.4953 544.043 79.1028 544.043 81.514C544.024 84.2804 542.376 85.4953 540.766 85.4953Z" fill="white"/>
<rect x="520" y="172" width="40" height="40" rx="12" fill="#09090B"/>
<path d="M550 192.423V191.577C550 190.858 549.718 190.2 549.186 189.574C548.864 189.215 548.495 188.899 548.091 188.635C547.872 188.479 547.621 188.322 547.34 188.166C547.12 188.072 546.933 187.947 546.714 187.853C546.092 187.592 545.455 187.372 544.804 187.196C544.898 187.477 544.961 187.79 545.023 188.072L545.211 189.011L546.244 189.418C546.401 189.48 546.557 189.543 546.714 189.637C546.776 189.668 546.87 189.7 546.933 189.731C547.214 189.887 547.433 190.044 547.653 190.2C548.466 190.732 548.967 191.358 549.124 191.984C548.967 192.642 548.466 193.268 547.653 193.8L547.903 194.488C547.997 194.77 548.059 195.083 548.091 195.365C548.495 195.101 548.864 194.785 549.186 194.426C549.718 193.8 550 193.142 550 192.423ZM537.793 197.305L536.792 196.429L537.011 197.211L537.793 197.305ZM539.609 196.585L539.984 196.867L540.767 197.336C540.798 197.368 540.829 197.399 540.861 197.399C541.311 197.399 541.761 197.368 542.207 197.305L542.989 197.211L543.928 197.023L544.804 196.804C545.455 196.628 546.092 196.408 546.714 196.147L546.494 195.302C546.463 195.239 546.463 195.146 546.432 195.052L546.244 194.582C545.931 194.739 545.556 194.864 545.211 194.989C544.961 195.083 544.679 195.146 544.429 195.208C544.397 195.239 544.366 195.239 544.335 195.239C544.022 195.333 543.74 195.396 543.427 195.427L542.958 195.521C542.488 195.615 542.019 195.646 541.518 195.709L539.984 195.772C539.484 195.772 538.983 195.74 538.482 195.709C538.826 196.022 539.233 196.304 539.609 196.585ZM533.505 188.698C533.505 188.761 533.537 188.854 533.568 188.948L533.756 189.418C534.069 189.261 534.444 189.136 534.789 189.011C535.039 188.917 535.321 188.854 535.571 188.792C535.602 188.761 535.634 188.761 535.665 188.761C535.978 188.698 536.26 188.604 536.573 188.573L537.042 188.479L538.482 188.291L539.984 188.26L541.518 188.291C541.174 187.978 540.767 187.696 540.391 187.415L539.984 187.133L539.233 186.664C539.202 186.632 539.171 186.601 539.139 186.601C538.67 186.601 538.232 186.664 537.793 186.695L537.011 186.789L536.072 186.977L535.196 187.196C534.545 187.372 533.907 187.592 533.286 187.853L533.505 188.698Z" fill="white"/>
<path d="M542.207 186.695L543.208 187.571L542.989 186.789L542.207 186.695ZM530.876 191.984C531.033 191.358 531.534 190.732 532.347 190.2L532.097 189.512C532.003 189.23 531.941 188.917 531.878 188.635C531.471 188.917 531.095 189.261 530.814 189.574C530.282 190.2 530 190.858 530 191.577V192.423C530 193.142 530.282 193.8 530.814 194.426C531.095 194.739 531.471 195.052 531.878 195.365L532.66 195.834C532.879 195.928 533.067 196.053 533.286 196.147C533.907 196.408 534.545 196.628 535.196 196.804C535.102 196.523 535.039 196.21 534.977 195.928L534.789 194.989L533.756 194.582C533.599 194.52 533.443 194.457 533.286 194.363C533.224 194.332 533.13 194.3 533.067 194.269C532.786 194.113 532.567 193.956 532.347 193.8C531.534 193.268 531.033 192.642 530.876 191.984Z" fill="white"/>
<path d="M542.207 197.305L540.861 197.399C541.08 197.556 541.33 197.681 541.549 197.775L542.207 197.305ZM547.371 185.224L546.776 184.629C546.275 184.128 545.587 183.847 544.773 183.784C544.335 183.753 543.865 183.815 543.365 183.909C543.083 183.941 542.77 184.034 542.488 184.097C542.269 184.16 542.05 184.254 541.8 184.347C541.236 184.566 540.61 184.848 539.984 185.192L540.798 185.693C541.049 185.85 541.299 186.038 541.549 186.225C541.894 186.038 542.238 185.881 542.582 185.756L543.052 185.568C543.146 185.537 543.239 185.537 543.302 185.505C543.584 185.412 543.865 185.349 544.147 185.286C545.086 185.13 545.9 185.224 546.463 185.537" fill="white"/>
<path d="M546.463 185.537C546.776 186.1 546.87 186.914 546.714 187.853C546.933 187.947 547.121 188.072 547.34 188.166C547.621 188.322 547.872 188.479 548.091 188.635C548.185 188.135 548.247 187.665 548.216 187.227C548.153 186.413 547.872 185.725 547.371 185.224C547.277 185.099 547.183 185.036 547.058 184.942M542.958 195.521L543.427 195.427C543.74 195.396 544.022 195.333 544.335 195.239C544.366 195.239 544.398 195.239 544.429 195.208C544.742 194.895 545.024 194.551 545.305 194.207L545.775 193.549L546.338 192.798L546.808 192.016C547.152 191.39 547.434 190.764 547.653 190.2L546.933 189.731C546.87 189.7 546.776 189.668 546.714 189.637C546.557 189.543 546.401 189.48 546.244 189.418C546.119 189.762 545.963 190.106 545.775 190.451C545.681 190.67 545.556 190.92 545.399 191.139C545.399 191.171 545.368 191.202 545.337 191.233C545.211 191.484 545.024 191.734 544.867 192.016L544.585 192.391L543.709 193.518C543.365 193.925 543.02 194.301 542.645 194.645C542.301 195.02 541.925 195.365 541.518 195.709L542.958 195.521ZM537.793 186.695C538.232 186.632 538.67 186.601 539.139 186.601C538.92 186.444 538.67 186.319 538.451 186.225C538.232 186.351 538.013 186.538 537.793 186.695ZM533.537 198.463C533.224 197.9 533.13 197.086 533.286 196.147C533.067 196.053 532.88 195.928 532.66 195.834L531.878 195.365C531.815 195.865 531.753 196.335 531.784 196.773C531.847 197.587 532.128 198.275 532.629 198.776L533.224 199.371C533.725 199.872 534.413 200.153 535.227 200.216C535.665 200.247 536.135 200.185 536.635 200.122L537.512 199.903C537.731 199.84 537.95 199.747 538.2 199.653C538.764 199.434 539.39 199.152 539.984 198.808L539.202 198.338L538.451 197.806L537.418 198.244L536.948 198.432C536.855 198.463 536.761 198.495 536.698 198.495C536.416 198.588 536.135 198.651 535.853 198.714C534.914 198.87 534.1 198.776 533.537 198.463ZM533.067 194.269C533.13 194.301 533.224 194.332 533.286 194.363C533.443 194.457 533.599 194.52 533.756 194.582C533.881 194.238 534.038 193.894 534.225 193.549C534.319 193.33 534.445 193.08 534.601 192.861C534.601 192.829 534.632 192.798 534.664 192.767C534.789 192.516 534.977 192.266 535.133 191.984L535.415 191.609L536.291 190.482C536.635 190.075 536.98 189.7 537.355 189.355C537.7 188.98 538.075 188.635 538.482 188.291L537.042 188.479L536.573 188.573C536.26 188.604 535.978 188.698 535.665 188.761C535.634 188.761 535.603 188.761 535.571 188.792C535.258 189.105 534.977 189.449 534.695 189.793L534.194 190.451C534.038 190.701 533.85 190.952 533.662 191.202L533.193 191.984C532.848 192.61 532.567 193.236 532.347 193.8L533.067 194.269Z" fill="white"/>
<path d="M534.695 194.207C534.632 193.761 534.601 193.311 534.601 192.861C534.444 193.08 534.319 193.33 534.225 193.549C534.351 193.768 534.538 193.987 534.695 194.207ZM533.537 185.537C534.1 185.224 534.914 185.13 535.853 185.286C535.947 185.067 536.072 184.879 536.166 184.66C536.322 184.379 536.479 184.128 536.635 183.909C536.135 183.815 535.665 183.753 535.227 183.784C534.413 183.847 533.725 184.128 533.224 184.629L532.629 185.224C532.128 185.725 531.847 186.413 531.784 187.227C531.753 187.665 531.815 188.135 531.878 188.635L532.097 189.512C532.16 189.731 532.254 189.95 532.347 190.2C532.567 190.764 532.848 191.39 533.192 192.016L533.662 191.202L534.194 190.451L533.756 189.418L533.568 188.948C533.537 188.854 533.505 188.761 533.505 188.698C533.412 188.416 533.349 188.135 533.286 187.853C533.13 186.914 533.224 186.1 533.537 185.537ZM545.305 189.793L545.399 191.139C545.556 190.92 545.681 190.67 545.775 190.451C545.649 190.232 545.462 190.013 545.305 189.793Z" fill="white"/>
<path d="M543.521 189.042L543.427 188.573C543.396 188.26 543.302 187.978 543.24 187.665C543.24 187.634 543.24 187.602 543.208 187.571C542.895 187.258 542.551 186.977 542.207 186.695L541.549 186.225L540.798 185.662L539.984 185.192C539.39 184.848 538.764 184.567 538.2 184.347L537.731 185.067C537.7 185.13 537.668 185.224 537.637 185.286C537.543 185.443 537.481 185.599 537.418 185.756C537.762 185.881 538.106 186.038 538.451 186.225C538.67 186.319 538.92 186.444 539.139 186.601C539.171 186.601 539.202 186.632 539.233 186.664C539.484 186.789 539.734 186.977 539.984 187.133C540.141 187.227 540.266 187.321 540.391 187.415L541.518 188.291C541.925 188.635 542.301 188.98 542.645 189.355C543.02 189.7 543.365 190.075 543.709 190.482L543.521 189.042ZM536.479 194.958L536.573 195.427C536.604 195.74 536.698 196.022 536.761 196.335C536.761 196.366 536.761 196.397 536.792 196.429C537.105 196.742 537.449 197.023 537.794 197.305L538.451 197.775L539.202 198.338L539.984 198.808C540.61 199.152 541.236 199.433 541.8 199.653L542.269 198.933C542.301 198.87 542.332 198.776 542.363 198.714C542.457 198.557 542.52 198.401 542.582 198.244C542.238 198.119 541.894 197.962 541.549 197.775C541.33 197.681 541.08 197.556 540.861 197.399C540.829 197.399 540.798 197.368 540.767 197.336C540.517 197.211 540.266 197.023 539.984 196.867L539.609 196.585L538.482 195.709C538.075 195.365 537.7 195.02 537.355 194.645C536.98 194.3 536.635 193.925 536.291 193.518L536.479 194.958ZM546.776 199.371L547.371 198.776C547.872 198.275 548.153 197.587 548.216 196.773C548.247 196.335 548.185 195.865 548.091 195.365C548.06 195.083 547.997 194.77 547.903 194.488C547.84 194.269 547.747 194.05 547.653 193.8C547.434 193.236 547.152 192.61 546.808 192.016L546.338 192.798L545.775 193.549C545.963 193.894 546.119 194.238 546.244 194.582L546.432 195.052C546.463 195.146 546.463 195.239 546.495 195.302C546.588 195.584 546.651 195.865 546.714 196.147C546.87 197.086 546.776 197.9 546.463 198.463C545.9 198.776 545.086 198.87 544.147 198.714C544.053 198.933 543.928 199.12 543.834 199.34C543.678 199.621 543.521 199.872 543.365 200.091C543.865 200.185 544.335 200.247 544.773 200.216C545.587 200.153 546.276 199.872 546.776 199.371Z" fill="white"/>
<path d="M535.415 191.609L535.133 192.016L534.663 192.767C534.632 192.798 534.601 192.829 534.601 192.861C534.601 193.311 534.632 193.761 534.695 194.207L534.789 194.989L534.976 195.928L535.196 196.804C535.372 197.455 535.591 198.093 535.853 198.714L536.698 198.495C536.76 198.463 536.854 198.463 536.948 198.432L537.418 198.244C537.261 197.931 537.136 197.556 537.011 197.211C536.917 196.961 536.854 196.679 536.792 196.429C536.76 196.397 536.76 196.366 536.76 196.335C536.698 196.022 536.604 195.74 536.573 195.427L536.479 194.958C536.385 194.488 536.354 194.019 536.291 193.518L536.228 192.016L536.291 190.482C535.978 190.826 535.696 191.233 535.415 191.609ZM545.305 194.207L544.429 195.208L545.211 194.989L545.305 194.207ZM534.695 189.793L535.571 188.792L534.789 189.011L534.695 189.793ZM544.585 192.391L544.867 192.016L545.336 191.233C545.368 191.202 545.399 191.171 545.399 191.139C545.399 190.701 545.336 190.232 545.305 189.793L545.211 189.011L545.023 188.072L544.804 187.196C544.628 186.545 544.408 185.907 544.147 185.286L543.302 185.505C543.239 185.537 543.145 185.537 543.052 185.568L542.582 185.756C542.739 186.069 542.864 186.444 542.989 186.789C543.083 187.039 543.145 187.321 543.208 187.571C543.239 187.603 543.239 187.634 543.239 187.665C543.302 187.978 543.396 188.26 543.427 188.573L543.521 189.042L543.709 190.482L543.74 192.016L543.709 193.518C544.022 193.174 544.303 192.767 544.585 192.391ZM543.365 183.878C543.052 183.471 542.739 183.095 542.426 182.814C541.8 182.282 541.142 182 540.422 182H539.577C538.857 182 538.2 182.282 537.574 182.814C537.261 183.095 536.917 183.471 536.635 183.878L536.166 184.66C536.072 184.879 535.947 185.067 535.853 185.286C535.591 185.907 535.372 186.545 535.196 187.196C535.477 187.102 535.79 187.039 536.072 186.977L537.011 186.789L537.418 185.756C537.48 185.599 537.543 185.443 537.637 185.286C537.668 185.224 537.699 185.13 537.731 185.067C537.887 184.786 538.044 184.567 538.2 184.347C538.732 183.534 539.358 183.033 539.984 182.876C540.642 183.033 541.267 183.534 541.8 184.347L542.488 184.097M539.577 202H540.422C541.142 202 541.8 201.718 542.426 201.186C542.739 200.905 543.052 200.529 543.365 200.091C543.521 199.872 543.678 199.621 543.834 199.34C543.928 199.121 544.053 198.933 544.147 198.714C544.408 198.093 544.628 197.455 544.804 196.804L543.928 197.023L542.989 197.211L542.582 198.244C542.519 198.401 542.457 198.557 542.363 198.714C542.332 198.776 542.3 198.87 542.269 198.933C542.113 199.214 541.956 199.433 541.8 199.653C541.267 200.466 540.642 200.967 539.984 201.124C539.358 200.967 538.732 200.466 538.2 199.653L537.512 199.903L536.635 200.091C536.899 200.495 537.215 200.864 537.574 201.186C538.2 201.718 538.857 202 539.577 202Z" fill="white"/>
<path d="M134 111H252" stroke="url(#paint8_linear_1_1726)"/>
<path d="M466 111H348" stroke="url(#paint9_linear_1_1726)"/>
<path d="M80 84H252" stroke="url(#paint10_linear_1_1726)"/>
<path d="M520 84H348" stroke="url(#paint11_linear_1_1726)"/>
<path d="M80 138H252" stroke="url(#paint12_linear_1_1726)"/>
<path d="M520 138H348" stroke="url(#paint13_linear_1_1726)"/>
<g filter="url(#filter0_dii_1_1726)">
<rect x="258" y="69" width="84" height="84" rx="16" fill="url(#paint14_linear_1_1726)"/>
<path d="M325.104 92.704L314.964 129H306.384L299.572 103.156L292.448 129L283.92 129.052L274.144 92.704H281.944L288.34 120.888L295.724 92.704H303.836L310.804 120.732L317.252 92.704H325.104Z" fill="white"/>
<rect x="258.5" y="69.5" width="83" height="83" rx="15.5" stroke="url(#paint15_linear_1_1726)"/>
</g>
<defs>
<filter id="filter0_dii_1_1726" x="218" y="37" width="164" height="164" filterUnits="userSpaceOnUse" color-interpolation-filters="sRGB">
<feFlood flood-opacity="0" result="BackgroundImageFix"/>
<feColorMatrix in="SourceAlpha" type="matrix" values="0 0 0 0 0 0 0 0 0 0 0 0 0 0 0 0 0 0 127 0" result="hardAlpha"/>
<feOffset dy="8"/>
<feGaussianBlur stdDeviation="20"/>
<feComposite in2="hardAlpha" operator="out"/>
<feColorMatrix type="matrix" values="0 0 0 0 0.843137 0 0 0 0 0.427451 0 0 0 0 0.247059 0 0 0 1 0"/>
<feBlend mode="normal" in2="BackgroundImageFix" result="effect1_dropShadow_1_1726"/>
<feBlend mode="normal" in="SourceGraphic" in2="effect1_dropShadow_1_1726" result="shape"/>
<feColorMatrix in="SourceAlpha" type="matrix" values="0 0 0 0 0 0 0 0 0 0 0 0 0 0 0 0 0 0 127 0" result="hardAlpha"/>
<feOffset dx="8" dy="8"/>
<feGaussianBlur stdDeviation="8"/>
<feComposite in2="hardAlpha" operator="arithmetic" k2="-1" k3="1"/>
<feColorMatrix type="matrix" values="0 0 0 0 1 0 0 0 0 1 0 0 0 0 1 0 0 0 0.08 0"/>
<feBlend mode="normal" in2="shape" result="effect2_innerShadow_1_1726"/>
<feColorMatrix in="SourceAlpha" type="matrix" values="0 0 0 0 0 0 0 0 0 0 0 0 0 0 0 0 0 0 127 0" result="hardAlpha"/>
<feOffset/>
<feGaussianBlur stdDeviation="12"/>
<feComposite in2="hardAlpha" operator="arithmetic" k2="-1" k3="1"/>
<feColorMatrix type="matrix" values="0 0 0 0 1 0 0 0 0 1 0 0 0 0 1 0 0 0 0.08 0"/>
<feBlend mode="normal" in2="effect2_innerShadow_1_1726" result="effect3_innerShadow_1_1726"/>
</filter>
<linearGradient id="paint0_linear_1_1726" x1="292" y1="30" x2="80" y2="30" gradientUnits="userSpaceOnUse">
<stop stop-color="#0059DE"/>
<stop offset="1" stop-color="white" stop-opacity="0.24"/>
</linearGradient>
<linearGradient id="paint1_linear_1_1726" x1="308" y1="30" x2="520" y2="30" gradientUnits="userSpaceOnUse">
<stop stop-color="#0059DE"/>
<stop offset="1" stop-color="white" stop-opacity="0.24"/>
</linearGradient>
<linearGradient id="paint2_linear_1_1726" x1="292" y1="56" x2="134" y2="56" gradientUnits="userSpaceOnUse">
<stop stop-color="#0059DE"/>
<stop offset="1" stop-color="white" stop-opacity="0.24"/>
</linearGradient>
<linearGradient id="paint3_linear_1_1726" x1="308" y1="56" x2="466" y2="56" gradientUnits="userSpaceOnUse">
<stop stop-color="#0059DE"/>
<stop offset="1" stop-color="white" stop-opacity="0.24"/>
</linearGradient>
<linearGradient id="paint4_linear_1_1726" x1="292" y1="161" x2="80" y2="161" gradientUnits="userSpaceOnUse">
<stop stop-color="#0059DE"/>
<stop offset="1" stop-color="white" stop-opacity="0.24"/>
</linearGradient>
<linearGradient id="paint5_linear_1_1726" x1="308" y1="161" x2="520" y2="161" gradientUnits="userSpaceOnUse">
<stop stop-color="#0059DE"/>
<stop offset="1" stop-color="white" stop-opacity="0.24"/>
</linearGradient>
<linearGradient id="paint6_linear_1_1726" x1="292" y1="159" x2="134" y2="159" gradientUnits="userSpaceOnUse">
<stop stop-color="#0059DE"/>
<stop offset="1" stop-color="white" stop-opacity="0.24"/>
</linearGradient>
<linearGradient id="paint7_linear_1_1726" x1="308" y1="159" x2="466" y2="159" gradientUnits="userSpaceOnUse">
<stop stop-color="#0059DE"/>
<stop offset="1" stop-color="white" stop-opacity="0.24"/>
</linearGradient>
<linearGradient id="paint8_linear_1_1726" x1="252" y1="111" x2="134" y2="111" gradientUnits="userSpaceOnUse">
<stop stop-color="#0059DE"/>
<stop offset="1" stop-color="white" stop-opacity="0.24"/>
</linearGradient>
<linearGradient id="paint9_linear_1_1726" x1="348" y1="111" x2="466" y2="111" gradientUnits="userSpaceOnUse">
<stop stop-color="#0059DE"/>
<stop offset="1" stop-color="white" stop-opacity="0.24"/>
</linearGradient>
<linearGradient id="paint10_linear_1_1726" x1="252" y1="84" x2="80" y2="84" gradientUnits="userSpaceOnUse">
<stop stop-color="#0059DE"/>
<stop offset="1" stop-color="white" stop-opacity="0.24"/>
</linearGradient>
<linearGradient id="paint11_linear_1_1726" x1="348" y1="84" x2="520" y2="84" gradientUnits="userSpaceOnUse">
<stop stop-color="#0059DE"/>
<stop offset="1" stop-color="white" stop-opacity="0.24"/>
</linearGradient>
<linearGradient id="paint12_linear_1_1726" x1="252" y1="138" x2="80" y2="138" gradientUnits="userSpaceOnUse">
<stop stop-color="#0059DE"/>
<stop offset="1" stop-color="white" stop-opacity="0.24"/>
</linearGradient>
<linearGradient id="paint13_linear_1_1726" x1="348" y1="138" x2="520" y2="138" gradientUnits="userSpaceOnUse">
<stop stop-color="#0059DE"/>
<stop offset="1" stop-color="white" stop-opacity="0.24"/>
</linearGradient>
<linearGradient id="paint14_linear_1_1726" x1="258.253" y1="111" x2="342.58" y2="109.115" gradientUnits="userSpaceOnUse">
<stop stop-color="#D76D3F"/>
<stop offset="1" stop-color="#FFB570"/>
</linearGradient>
<linearGradient id="paint15_linear_1_1726" x1="300" y1="69" x2="300" y2="153" gradientUnits="userSpaceOnUse">
<stop stop-color="white" stop-opacity="0.24"/>
<stop offset="1" stop-color="white" stop-opacity="0.08"/>
</linearGradient>
</defs>
</svg>
