<svg width="38" height="38" viewBox="0 0 38 38" fill="none" xmlns="http://www.w3.org/2000/svg">
<g id="teamwork-team-people-business-meeting-group-office-svgrepo-com 2" clip-path="url(#clip0_1_2653)">
<g id="37. Teamwork">
<path id="Vector" d="M29.6875 30.2576C28.5132 30.2576 27.3652 29.9164 26.3888 29.277C25.4124 28.6376 24.6514 27.7288 24.202 26.6656C23.7526 25.6024 23.635 24.4324 23.8641 23.3037C24.0932 22.175 24.6587 21.1382 25.4891 20.3244C26.3194 19.5106 27.3774 18.9564 28.5292 18.7319C29.6809 18.5074 30.8748 18.6226 31.9597 19.063C33.0446 19.5035 33.9719 20.2493 34.6244 21.2061C35.2768 22.163 35.625 23.288 35.625 24.4389C35.6231 25.9815 34.997 27.4605 33.8839 28.5513C32.7708 29.6421 31.2616 30.2558 29.6875 30.2576ZM29.6875 20.9476C28.9829 20.9476 28.2941 21.1524 27.7083 21.536C27.1224 21.9196 26.6658 22.4649 26.3962 23.1028C26.1265 23.7408 26.056 24.4427 26.1935 25.12C26.3309 25.7972 26.6702 26.4193 27.1684 26.9076C27.6667 27.3958 28.3014 27.7283 28.9925 27.863C29.6836 27.9977 30.3999 27.9286 31.0508 27.6644C31.7018 27.4001 32.2582 26.9526 32.6496 26.3785C33.0411 25.8044 33.25 25.1294 33.25 24.4389C33.25 23.5129 32.8747 22.6249 32.2066 21.9702C31.5385 21.3154 30.6323 20.9476 29.6875 20.9476Z" fill="#D76D3F"/>
<path id="Vector_2" d="M26.125 37.24H23.75C23.4762 37.2401 23.2109 37.1474 22.9988 36.9778C22.7867 36.8081 22.641 36.5719 22.5862 36.309L21.3987 30.4903C21.3475 30.2399 21.3817 29.9799 21.4961 29.7505C21.6105 29.5211 21.7987 29.3349 22.0317 29.2206L26.3067 27.1259C26.4463 27.0561 26.5987 27.0142 26.7549 27.0024C26.9112 26.9907 27.0683 27.0094 27.2172 27.0574C27.366 27.1054 27.5037 27.1819 27.6223 27.2823C27.7409 27.3827 27.838 27.5052 27.908 27.6426C27.9781 27.78 28.0197 27.9296 28.0305 28.0828C28.0412 28.236 28.021 28.3898 27.9708 28.5353C27.9206 28.6808 27.8415 28.8152 27.7381 28.9306C27.6347 29.046 27.509 29.1402 27.3683 29.2078L23.9044 30.9011L24.7237 34.9125H26.125C26.4399 34.9125 26.742 35.0351 26.9647 35.2534C27.1874 35.4716 27.3125 35.7676 27.3125 36.0763C27.3125 36.3849 27.1874 36.6809 26.9647 36.8992C26.742 37.1174 26.4399 37.24 26.125 37.24Z" fill="#D76D3F"/>
<path id="Vector_3" d="M35.625 37.2401H30.875C30.5601 37.2401 30.258 37.1175 30.0353 36.8993C29.8126 36.681 29.6875 36.385 29.6875 36.0764C29.6875 35.7677 29.8126 35.4717 30.0353 35.2535C30.258 35.0352 30.5601 34.9126 30.875 34.9126H34.6513L35.4706 30.9012L32.0067 29.2102C31.866 29.1427 31.7403 29.0484 31.6369 28.933C31.5335 28.8176 31.4544 28.6833 31.4042 28.5378C31.354 28.3923 31.3338 28.2385 31.3445 28.0852C31.3553 27.932 31.3969 27.7824 31.467 27.645C31.537 27.5076 31.6341 27.3852 31.7527 27.2847C31.8713 27.1843 32.009 27.1079 32.1578 27.0598C32.3067 27.0118 32.4638 26.9931 32.6201 27.0049C32.7763 27.0166 32.9287 27.0586 33.0683 27.1283L37.3433 29.223C37.5759 29.3372 37.7638 29.523 37.8781 29.752C37.9925 29.9809 38.0269 30.2404 37.9762 30.4904L36.7887 36.3091C36.734 36.572 36.5883 36.8082 36.3762 36.9779C36.1641 37.1475 35.8988 37.2402 35.625 37.2401Z" fill="#D76D3F"/>
<path id="Vector_4" d="M8.3125 30.2576C7.13818 30.2576 5.99022 29.9164 5.0138 29.277C4.03739 28.6376 3.27636 27.7288 2.82697 26.6656C2.37757 25.6024 2.25999 24.4324 2.48909 23.3037C2.71819 22.175 3.28368 21.1382 4.11406 20.3244C4.94443 19.5106 6.00239 18.9564 7.15415 18.7319C8.30592 18.5074 9.49975 18.6226 10.5847 19.063C11.6696 19.5035 12.5969 20.2493 13.2494 21.2061C13.9018 22.163 14.25 23.288 14.25 24.4389C14.2481 25.9815 13.622 27.4605 12.5089 28.5513C11.3958 29.6421 9.88665 30.2558 8.3125 30.2576ZM8.3125 20.9476C7.60791 20.9476 6.91913 21.1524 6.33328 21.536C5.74743 21.9196 5.29082 22.4649 5.02118 23.1028C4.75154 23.7408 4.681 24.4427 4.81846 25.12C4.95591 25.7972 5.29521 26.4193 5.79343 26.9076C6.29166 27.3958 6.92644 27.7283 7.61749 27.863C8.30855 27.9977 9.02485 27.9286 9.67581 27.6644C10.3268 27.4001 10.8832 26.9526 11.2746 26.3785C11.6661 25.8044 11.875 25.1294 11.875 24.4389C11.875 23.5129 11.4997 22.6249 10.8316 21.9702C10.1635 21.3154 9.25734 20.9476 8.3125 20.9476Z" fill="#D76D3F"/>
<path id="Vector_5" d="M4.75 37.2399H2.375C2.10124 37.24 1.83588 37.1474 1.62381 36.9777C1.41174 36.8081 1.266 36.5718 1.21125 36.3089L0.0237494 30.4902C-0.0275038 30.2398 0.00669476 29.9799 0.121073 29.7504C0.235452 29.521 0.423661 29.3348 0.656687 29.2205L4.93169 27.1258C5.07134 27.0575 5.22335 27.0168 5.37904 27.006C5.53473 26.9953 5.69106 27.0147 5.8391 27.0632C5.98714 27.1117 6.12398 27.1882 6.24183 27.2885C6.35967 27.3888 6.4562 27.5109 6.52591 27.6477C6.59561 27.7846 6.63713 27.9336 6.64809 28.0861C6.65905 28.2387 6.63924 28.3919 6.58978 28.537C6.54033 28.6821 6.4622 28.8162 6.35985 28.9317C6.25751 29.0472 6.13296 29.1418 5.99331 29.2101L2.52937 30.901L3.34875 34.9124H4.75C5.06494 34.9124 5.36699 35.0351 5.58969 35.2533C5.81239 35.4715 5.9375 35.7675 5.9375 36.0762C5.9375 36.3848 5.81239 36.6808 5.58969 36.8991C5.36699 37.1173 5.06494 37.2399 4.75 37.2399Z" fill="#D76D3F"/>
<path id="Vector_6" d="M14.25 37.2401H9.5C9.18506 37.2401 8.88301 37.1175 8.66031 36.8993C8.43761 36.681 8.3125 36.385 8.3125 36.0764C8.3125 35.7677 8.43761 35.4717 8.66031 35.2535C8.88301 35.0352 9.18506 34.9126 9.5 34.9126H13.2763L14.0956 30.9012L10.6317 29.2102C10.491 29.1427 10.3653 29.0484 10.2619 28.933C10.1585 28.8176 10.0794 28.6833 10.0292 28.5378C9.97904 28.3923 9.95876 28.2385 9.96953 28.0852C9.9803 27.932 10.0219 27.7824 10.092 27.645C10.162 27.5076 10.2591 27.3852 10.3777 27.2847C10.4963 27.1843 10.634 27.1079 10.7828 27.0598C10.9317 27.0118 11.0888 26.9931 11.2451 27.0049C11.4013 27.0166 11.5537 27.0586 11.6933 27.1283L15.9683 29.223C16.2009 29.3372 16.3888 29.523 16.5031 29.752C16.6175 29.9809 16.6519 30.2404 16.6012 30.4904L15.4137 36.3091C15.359 36.572 15.2133 36.8082 15.0012 36.9779C14.7891 37.1475 14.5238 37.2402 14.25 37.2401Z" fill="#D76D3F"/>
<path id="Vector_7" d="M19.8384 18.62H18.1616C17.4397 18.6182 16.7479 18.3363 16.2375 17.836C15.727 17.3358 15.4394 16.6578 15.4375 15.9504C15.4376 15.8903 15.4215 15.8312 15.3909 15.7791C15.3603 15.7271 15.3162 15.6838 15.2631 15.6537C15.2101 15.6236 15.1498 15.6078 15.0885 15.6078C15.0272 15.6077 14.9669 15.6236 14.9138 15.6536C14.6039 15.8291 14.2618 15.9431 13.9069 15.9889C13.552 16.0348 13.1914 16.0117 12.8457 15.9209C12.5 15.8301 12.1759 15.6734 11.892 15.4598C11.608 15.2462 11.3698 14.9799 11.191 14.6761L10.3598 13.2539C10.0003 12.6403 9.90351 11.9121 10.0904 11.2286C10.2774 10.5451 10.7328 9.96202 11.3573 9.60676C11.4103 9.57655 11.4542 9.53325 11.4848 9.48117C11.5154 9.4291 11.5314 9.37008 11.5314 9.31C11.5314 9.24993 11.5154 9.1909 11.4848 9.13883C11.4542 9.08675 11.4103 9.04345 11.3573 9.01324C10.7328 8.65798 10.2774 8.07486 10.0904 7.3914C9.90351 6.70793 10.0003 5.97974 10.3598 5.36605L11.1969 3.94395C11.3758 3.6401 11.614 3.37376 11.8979 3.16017C12.1818 2.94657 12.5059 2.7899 12.8516 2.69912C13.1974 2.60834 13.558 2.58521 13.9128 2.63107C14.2677 2.67694 14.6099 2.79088 14.9198 2.9664C14.9727 2.99502 15.0323 3.00968 15.0928 3.00893C15.1532 3.00819 15.2125 2.99207 15.2647 2.96216C15.3168 2.93224 15.3602 2.88956 15.3905 2.83828C15.4208 2.787 15.437 2.72889 15.4375 2.66964C15.4394 1.96218 15.727 1.28421 16.2375 0.783956C16.7479 0.2837 17.4397 0.00184317 18.1616 0L19.8384 0C20.5603 0.00184317 21.2521 0.2837 21.7626 0.783956C22.273 1.28421 22.5606 1.96218 22.5625 2.66964C22.5612 2.73002 22.5767 2.7896 22.6075 2.84191C22.6383 2.89423 22.6831 2.93728 22.7371 2.9664C22.79 2.99677 22.8503 3.01278 22.9116 3.01278C22.973 3.01278 23.0332 2.99677 23.0862 2.9664C23.3961 2.79088 23.7383 2.67694 24.0931 2.63107C24.448 2.58521 24.8086 2.60834 25.1543 2.69912C25.5001 2.7899 25.8241 2.94657 26.1081 3.16017C26.392 3.37376 26.6302 3.6401 26.809 3.94395L27.6403 5.36605C27.9997 5.97974 28.0965 6.70793 27.9096 7.3914C27.7227 8.07486 27.2672 8.65798 26.6428 9.01324C26.5898 9.04345 26.5458 9.08675 26.5152 9.13883C26.4847 9.1909 26.4686 9.24993 26.4686 9.31C26.4686 9.37008 26.4847 9.4291 26.5152 9.48117C26.5458 9.53325 26.5898 9.57655 26.6428 9.60676C27.2672 9.96202 27.7227 10.5451 27.9096 11.2286C28.0965 11.9121 27.9997 12.6403 27.6403 13.2539L26.809 14.6761C26.6302 14.9799 26.392 15.2462 26.1081 15.4598C25.8241 15.6734 25.5001 15.8301 25.1543 15.9209C24.8086 16.0117 24.448 16.0348 24.0931 15.9889C23.7383 15.9431 23.3961 15.8291 23.0862 15.6536C23.0334 15.6229 22.9731 15.6067 22.9116 15.6067C22.8502 15.6067 22.7899 15.6229 22.7371 15.6536C22.6831 15.6827 22.6383 15.7258 22.6075 15.7781C22.5767 15.8304 22.5612 15.89 22.5625 15.9504C22.5606 16.6578 22.273 17.3358 21.7626 17.836C21.2521 18.3363 20.5603 18.6182 19.8384 18.62ZM15.0884 13.2761C15.8111 13.2779 16.5036 13.5604 17.0142 14.0617C17.5248 14.5629 17.8119 15.2421 17.8125 15.9504C17.8125 16.0411 17.8493 16.1281 17.9148 16.1923C17.9802 16.2565 18.069 16.2925 18.1616 16.2925H19.8384C19.931 16.2925 20.0198 16.2565 20.0853 16.1923C20.1507 16.1281 20.1875 16.0411 20.1875 15.9504C20.1874 15.4817 20.3133 15.0213 20.5523 14.6154C20.7914 14.2095 21.1353 13.8724 21.5494 13.6381C21.9635 13.4037 22.4333 13.2803 22.9115 13.2803C23.3898 13.2803 23.8596 13.4037 24.2737 13.638C24.3132 13.6613 24.3573 13.6764 24.4031 13.6822C24.4489 13.688 24.4954 13.6845 24.5397 13.6717C24.5841 13.6606 24.6258 13.6407 24.6621 13.6133C24.6984 13.5859 24.7287 13.5515 24.7511 13.5123L25.5894 12.0902C25.6354 12.0118 25.6477 11.9187 25.6237 11.8314C25.5996 11.7441 25.5412 11.6698 25.4612 11.6247C25.0472 11.3902 24.7034 11.0531 24.4644 10.6472C24.2254 10.2413 24.0996 9.78094 24.0996 9.31233C24.0996 8.84371 24.2254 8.38334 24.4644 7.97746C24.7034 7.57157 25.0472 7.23445 25.4612 6.99996C25.5412 6.95489 25.5996 6.88053 25.6237 6.79323C25.6477 6.70594 25.6354 6.61285 25.5894 6.53446L24.7511 5.11235C24.7287 5.07313 24.6984 5.03878 24.6621 5.01137C24.6258 4.98396 24.5841 4.96408 24.5397 4.95292C24.4953 4.94076 24.4489 4.93747 24.4032 4.94327C24.3575 4.94907 24.3135 4.96383 24.2737 4.98667C23.8592 5.22119 23.389 5.34456 22.9103 5.34434C22.4317 5.34411 21.9616 5.22032 21.5473 4.98541C21.1331 4.7505 20.7893 4.41277 20.5505 4.00623C20.3118 3.59969 20.1866 3.13869 20.1875 2.66964C20.1875 2.5789 20.1507 2.49188 20.0853 2.42771C20.0198 2.36355 19.931 2.3275 19.8384 2.3275H18.1616C18.069 2.3275 17.9802 2.36355 17.9148 2.42771C17.8493 2.49188 17.8125 2.5789 17.8125 2.66964C17.8126 3.1383 17.6868 3.59871 17.4477 4.0046C17.2086 4.41049 16.8648 4.74756 16.4506 4.98192C16.0365 5.21627 15.5667 5.33966 15.0885 5.33968C14.6103 5.3397 14.1405 5.21634 13.7263 4.98201C13.6866 4.95918 13.6425 4.94442 13.5968 4.93862C13.5511 4.93282 13.5047 4.9361 13.4603 4.94827C13.4159 4.95942 13.3743 4.97931 13.3379 5.00671C13.3016 5.03412 13.2713 5.06848 13.2489 5.1077L12.4106 6.5298C12.3646 6.6082 12.3523 6.70128 12.3763 6.78858C12.4004 6.87587 12.4588 6.95023 12.5388 6.9953C12.9528 7.2298 13.2966 7.56691 13.5356 7.9728C13.7746 8.37869 13.9004 8.83906 13.9004 9.30767C13.9004 9.77629 13.7746 10.2367 13.5356 10.6425C13.2966 11.0484 12.9528 11.3855 12.5388 11.62C12.4588 11.6651 12.4004 11.7395 12.3763 11.8268C12.3523 11.9141 12.3646 12.0071 12.4106 12.0855L13.2489 13.5076C13.2713 13.5469 13.3016 13.5812 13.3379 13.6086C13.3743 13.636 13.4159 13.6559 13.4603 13.6671C13.5046 13.6799 13.5512 13.6835 13.597 13.6777C13.6427 13.6718 13.6868 13.6568 13.7263 13.6333C14.1404 13.3991 14.6102 13.2758 15.0884 13.2761Z" fill="#481905"/>
<path id="Vector_8" d="M19 11.6374C18.5303 11.6374 18.0711 11.5009 17.6805 11.2452C17.29 10.9894 16.9855 10.6259 16.8058 10.2006C16.626 9.77532 16.579 9.30734 16.6706 8.85585C16.7623 8.40436 16.9885 7.98964 17.3206 7.66413C17.6528 7.33863 18.076 7.11695 18.5367 7.02715C18.9974 6.93734 19.4749 6.98343 19.9089 7.15959C20.3428 7.33576 20.7138 7.63408 20.9747 8.01683C21.2357 8.39959 21.375 8.84959 21.375 9.30992C21.375 9.92721 21.1248 10.5192 20.6794 10.9557C20.234 11.3922 19.6299 11.6374 19 11.6374Z" fill="#481905"/>
</g>
</g>
<defs>
<clipPath id="clip0_1_2653">
<rect width="38" height="37.24" fill="white"/>
</clipPath>
</defs>
</svg>
