<svg width="148" height="28" viewBox="0 0 148 28" fill="none" xmlns="http://www.w3.org/2000/svg">
<circle cx="14" cy="14" r="14" fill="white"/>
<path d="M20.2315 10.9831C19.8119 11.1693 19.369 11.2857 18.9028 11.3556C19.369 11.0762 19.7419 10.6339 19.9051 10.0985C19.4622 10.3546 18.9727 10.5408 18.4366 10.6572C18.017 10.2149 17.4109 9.93555 16.7582 9.93555C15.4995 9.93555 14.4738 10.9598 14.4738 12.2169C14.4738 12.4031 14.4972 12.5661 14.5438 12.729C12.6556 12.6359 10.954 11.728 9.81181 10.3313C9.62533 10.6805 9.50878 11.0529 9.50878 11.472C9.50878 12.2634 9.90505 12.9618 10.5344 13.3808C10.1615 13.3576 9.81181 13.2644 9.48547 13.1015V13.1248C9.48547 14.2422 10.278 15.1733 11.327 15.3828C11.1405 15.4294 10.9307 15.4527 10.7209 15.4527C10.581 15.4527 10.4179 15.4294 10.278 15.4061C10.581 16.314 11.4202 16.9891 12.4225 16.9891C11.63 17.5943 10.651 17.9668 9.57871 17.9668C9.39222 17.9668 9.20574 17.9668 9.04257 17.9435C10.0682 18.5953 11.257 18.9678 12.5624 18.9678C16.7815 18.9678 19.0893 15.476 19.0893 12.4497C19.0893 12.3566 19.0893 12.2402 19.0893 12.1471C19.5321 11.8444 19.9284 11.4487 20.2315 10.9831Z" fill="black"/>
<circle cx="54" cy="14" r="14" fill="white"/>
<path d="M52.7796 20.3038V14.7503H50.9082V12.5859H52.7796V10.9898C52.7796 9.13752 53.9124 8.12891 55.567 8.12891C56.3595 8.12891 57.0407 8.18784 57.2392 8.21417V10.1499L56.0917 10.1505C55.1918 10.1505 55.0176 10.5775 55.0176 11.2041V12.5859H57.1637L56.8842 14.7503H55.0176V20.3038H52.7796Z" fill="black"/>
<circle cx="94" cy="14" r="14" fill="white"/>
<path d="M94.1249 8.44721C95.936 8.44721 96.1505 8.45398 96.866 8.48656C97.2961 8.49182 97.7222 8.5707 98.1257 8.71979C98.4183 8.83248 98.684 9.00511 98.9058 9.22656C99.1275 9.44802 99.3004 9.71339 99.4132 10.0056C99.5625 10.4085 99.6415 10.8341 99.6468 11.2637C99.6791 11.9782 99.6862 12.1924 99.6862 14.0011C99.6862 15.8098 99.6794 16.024 99.6468 16.7385C99.6415 17.1681 99.5625 17.5936 99.4132 17.9966C99.3004 18.2888 99.1275 18.5541 98.9058 18.7756C98.684 18.997 98.4183 19.1697 98.1257 19.2824C97.7222 19.4315 97.2961 19.5103 96.866 19.5156C96.1508 19.5479 95.9363 19.5549 94.1249 19.5549C92.3134 19.5549 92.0989 19.5482 91.3838 19.5156C90.9536 19.5103 90.5275 19.4315 90.124 19.2824C89.8314 19.1697 89.5657 18.997 89.344 18.7756C89.1222 18.5541 88.9494 18.2888 88.8365 17.9966C88.6872 17.5936 88.6082 17.1681 88.603 16.7385C88.5707 16.024 88.5636 15.8098 88.5636 14.0011C88.5636 12.1924 88.5704 11.9782 88.603 11.2637C88.6082 10.8341 88.6872 10.4085 88.8365 10.0056C88.9494 9.71339 89.1222 9.44802 89.344 9.22656C89.5657 9.00511 89.8314 8.83248 90.124 8.71979C90.5275 8.5707 90.9536 8.49182 91.3838 8.48656C92.0993 8.4543 92.3137 8.44721 94.1249 8.44721ZM94.1249 7.22656C92.2837 7.22656 92.0518 7.2343 91.3282 7.26721C90.7652 7.27839 90.2082 7.38485 89.6809 7.58205C89.2285 7.75226 88.8187 8.019 88.4802 8.36366C88.1348 8.70184 87.8675 9.11127 87.6969 9.56334C87.4995 10.09 87.3929 10.6463 87.3817 11.2085C87.3494 11.9304 87.3416 12.162 87.3416 14.0008C87.3416 15.8395 87.3494 16.0711 87.3823 16.7937C87.3935 17.3559 87.5001 17.9122 87.6976 18.4388C87.8679 18.8908 88.135 19.3002 88.4802 19.6385C88.8189 19.9832 89.2289 20.25 89.6815 20.4201C90.2089 20.6173 90.7659 20.7238 91.3289 20.7349C92.0524 20.7672 92.2834 20.7756 94.1255 20.7756C95.9677 20.7756 96.1986 20.7679 96.9222 20.7349C97.4852 20.7238 98.0422 20.6173 98.5695 20.4201C99.02 20.2457 99.4291 19.9794 99.7706 19.6381C100.112 19.2968 100.379 18.8882 100.553 18.4382C100.75 17.9115 100.857 17.3553 100.868 16.793C100.9 16.0711 100.908 15.8395 100.908 14.0008C100.908 12.162 100.9 11.9304 100.867 11.2079C100.856 10.6456 100.75 10.0893 100.552 9.56269C100.382 9.11068 100.115 8.70126 99.7695 8.36301C99.4308 8.01828 99.0208 7.75153 98.5682 7.5814C98.0409 7.3842 97.4839 7.27775 96.9209 7.26656C96.198 7.2343 95.966 7.22656 94.1249 7.22656Z" fill="black"/>
<path d="M94.1258 10.5234C93.4369 10.5234 92.7634 10.7275 92.1906 11.1097C91.6177 11.492 91.1713 12.0353 90.9076 12.6709C90.644 13.3066 90.575 14.006 90.7094 14.6808C90.8438 15.3556 91.1756 15.9755 91.6627 16.462C92.1499 16.9485 92.7705 17.2798 93.4463 17.414C94.122 17.5482 94.8223 17.4794 95.4588 17.2161C96.0954 16.9528 96.6394 16.5069 97.0221 15.9348C97.4049 15.3627 97.6092 14.6902 97.6092 14.0021C97.6092 13.0795 97.2422 12.1947 96.5889 11.5423C95.9357 10.8899 95.0497 10.5234 94.1258 10.5234ZM94.1258 16.2602C93.6786 16.2602 93.2415 16.1278 92.8696 15.8797C92.4978 15.6315 92.208 15.2789 92.0369 14.8663C91.8657 14.4537 91.8209 13.9996 91.9082 13.5616C91.9954 13.1236 92.2108 12.7213 92.527 12.4055C92.8432 12.0897 93.2461 11.8746 93.6847 11.7875C94.1233 11.7003 94.5779 11.7451 94.9911 11.916C95.4043 12.0869 95.7574 12.3763 96.0058 12.7476C96.2543 13.119 96.3869 13.5555 96.3869 14.0021C96.3869 14.601 96.1487 15.1754 95.7247 15.5988C95.3006 16.0223 94.7255 16.2602 94.1258 16.2602Z" fill="black"/>
<path d="M97.7474 11.1981C98.197 11.1981 98.5614 10.8341 98.5614 10.3852C98.5614 9.93621 98.197 9.57227 97.7474 9.57227C97.2978 9.57227 96.9334 9.93621 96.9334 10.3852C96.9334 10.8341 97.2978 11.1981 97.7474 11.1981Z" fill="black"/>
<circle cx="134" cy="14" r="14" fill="white"/>
<path fill-rule="evenodd" clip-rule="evenodd" d="M134.787 7.22656C131.191 7.22656 128.299 10.1155 128.299 13.7065C128.299 16.5684 130.164 18.9984 132.732 19.8624C133.057 19.9164 133.165 19.7274 133.165 19.5384C133.165 19.3764 133.165 18.9714 133.165 18.4314C131.354 18.8364 130.975 17.5674 130.975 17.5674C130.678 16.8114 130.245 16.6224 130.245 16.6224C129.65 16.2174 130.299 16.2174 130.299 16.2174C130.948 16.2714 131.3 16.8924 131.3 16.8924C131.867 17.8914 132.814 17.5944 133.192 17.4324C133.246 17.0004 133.408 16.7304 133.598 16.5684C132.165 16.4064 130.651 15.8394 130.651 13.3555C130.651 12.6535 130.894 12.0595 131.327 11.6275C131.273 11.4655 131.029 10.8175 131.381 9.89952C131.381 9.89952 131.921 9.73752 133.165 10.5745C133.679 10.4395 134.246 10.3585 134.787 10.3585C135.328 10.3585 135.896 10.4395 136.409 10.5745C137.653 9.73752 138.194 9.89952 138.194 9.89952C138.545 10.7905 138.329 11.4385 138.248 11.6275C138.653 12.0865 138.924 12.6535 138.924 13.3555C138.924 15.8394 137.41 16.3794 135.95 16.5414C136.193 16.7304 136.382 17.1354 136.382 17.7294C136.382 18.5934 136.382 19.2954 136.382 19.5114C136.382 19.6734 136.49 19.8894 136.842 19.8354C139.41 18.9984 141.276 16.5684 141.276 13.7065C141.276 10.1155 138.383 7.22656 134.787 7.22656Z" fill="black"/>
</svg>
